<svg width="17" height="10" viewBox="0 0 17 10" fill="none" xmlns="http://www.w3.org/2000/svg">
    <path d="M2.33523 0.272727L4.4446 6.90341H4.52557L6.6392 0.272727H8.68466L5.67614 9H3.2983L0.285511 0.272727H2.33523ZM14.4695 2.78267C14.4354 2.43892 14.2891 2.17187 14.0305 1.98153C13.772 1.79119 13.4212 1.69602 12.978 1.69602C12.6768 1.69602 12.4226 1.73864 12.2152 1.82386C12.0078 1.90625 11.8487 2.02131 11.7379 2.16903C11.63 2.31676 11.576 2.48438 11.576 2.67188C11.5703 2.82812 11.603 2.96449 11.674 3.08097C11.7479 3.19744 11.8487 3.2983 11.9766 3.38352C12.1044 3.46591 12.2521 3.53835 12.4197 3.60085C12.5874 3.66051 12.7663 3.71165 12.9567 3.75426L13.7408 3.94176C14.1214 4.02699 14.4709 4.14062 14.7891 4.28267C15.1072 4.42472 15.3828 4.59943 15.6158 4.80682C15.8487 5.0142 16.0291 5.25852 16.157 5.53977C16.2876 5.82102 16.3544 6.14347 16.3572 6.5071C16.3544 7.04119 16.218 7.50426 15.9482 7.89631C15.6811 8.28551 15.2947 8.58807 14.7891 8.80398C14.2862 9.01705 13.6797 9.12358 12.9695 9.12358C12.2649 9.12358 11.6513 9.01562 11.1286 8.79972C10.6087 8.58381 10.2024 8.2642 9.9098 7.84091C9.62003 7.41477 9.46804 6.88778 9.45384 6.25994H11.2393C11.2592 6.55256 11.343 6.79687 11.4908 6.9929C11.6413 7.18608 11.8416 7.33239 12.0916 7.43182C12.3445 7.52841 12.63 7.5767 12.9482 7.5767C13.2607 7.5767 13.532 7.53125 13.7621 7.44034C13.995 7.34943 14.1754 7.22301 14.3033 7.06108C14.4311 6.89915 14.495 6.71307 14.495 6.50284C14.495 6.30682 14.4368 6.14205 14.3203 6.00852C14.2067 5.875 14.0391 5.76136 13.8175 5.66761C13.5987 5.57386 13.3303 5.48864 13.0121 5.41193L12.0618 5.1733C11.326 4.99432 10.745 4.71449 10.3189 4.33381C9.89276 3.95312 9.68111 3.44034 9.68395 2.79545C9.68111 2.26705 9.82173 1.8054 10.1058 1.41051C10.3928 1.01562 10.7862 0.707386 11.2862 0.485795C11.7862 0.264204 12.3544 0.153409 12.9908 0.153409C13.6385 0.153409 14.2038 0.264204 14.6868 0.485795C15.1726 0.707386 15.5504 1.01562 15.8203 1.41051C16.0902 1.8054 16.2294 2.26278 16.2379 2.78267H14.4695Z" fill="black"/>
</svg>
